<svg xmlns="https://www.w3.org/2000/svg" version="1.1" xmlns:xlink="https://www.w3.org/1999/xlink" xmlns:svgjs="https://svgjs.dev/svgjs" width="1000" height="1000" viewBox="0 0 1000 1000"><rect width="1000" height="1000" fill="#c8c8c8"></rect><g transform="matrix(0.7,0,0,0.7,149.57576730472573,446.75340486920436)"><svg viewBox="0 0 396 60" data-background-color="#c8c8c8" preserveAspectRatio="xMidYMid meet" height="151" width="1000" xmlns="https://www.w3.org/2000/svg" xmlns:xlink="https://www.w3.org/1999/xlink"><g id="tight-bounds" transform="matrix(1,0,0,1,0.23999449618372637,0.22512495598613214)"><svg viewBox="0 0 395.52 59.54975008802772" height="59.54975008802772" width="395.52"><g><svg viewBox="0 0 478.0683662373691 71.97828614084507" height="59.54975008802772" width="395.52"><g><rect width="3.2604089853456446" height="71.97828614084507" x="70.75285519614485" y="0" fill="#000000" opacity="1" stroke-width="0" stroke="transparent" fill-opacity="1" class="rect-o-0" data-fill-palette-color="primary" rx="1%" id="o-0" data-palette-color="#000000"></rect></g><g transform="matrix(1,0,0,1,82.54836623736915,5.998190511737089)"><svg viewBox="0 0 395.5199999999999 59.98190511737089" height="59.98190511737089" width="395.5199999999999"><g><svg viewBox="0 0 395.5199999999999 59.98190511737089" height="59.98190511737089" width="395.5199999999999"><g><svg viewBox="0 0 395.5199999999999 36.154043849771476" height="36.154043849771476" width="395.5199999999999"><g transform="matrix(1,0,0,1,0,0)"><svg width="395.5199999999999" viewBox="4.199999809265137 -33.08000183105469 368.54998779296875 33.69000244140625" height="36.154043849771476" data-palette-color="#000000"><path d="M20.36 0.2L14.7-12.62Q13.96-12.57 13.13-12.57 12.3-12.57 10.67-12.7L10.67-12.7 10.67 0 4.2 0 4.2-32.64Q7.62-33.08 12.6-33.08L12.6-33.08Q19.38-33.08 22.72-30.58 26.05-28.08 26.05-22.85L26.05-22.85Q26.05-18.8 23-15.92L23-15.92Q22-14.99 20.7-14.31L20.7-14.31 25.68-3.81Q27.15-0.56 27.93 0.05L27.93 0.05 27.81 0.17Q25.44-0.22 20.36 0.2L20.36 0.2ZM13.06-27.32L13.06-27.32Q11.82-27.32 10.67-27.2L10.67-27.2 10.67-17.87Q11.87-17.7 13.48-17.7 15.09-17.7 16.19-17.98 17.29-18.26 18.09-18.85L18.09-18.85Q19.82-20.14 19.82-22.73 19.82-25.32 18.02-26.37L18.02-26.37Q16.33-27.32 13.06-27.32ZM39.69-5.86L49.66-5.86Q51.17-5.86 51.76-6.15L51.76-6.15 51.85-6.13 51.61 0 33.32 0 33.32-32.64Q33.98-32.59 34.79-32.57L34.79-32.57 36.5-32.52Q38.21-32.47 40.21-32.47L40.21-32.47Q45.8-32.47 51.27-32.67L51.27-32.67Q51-30.52 51-26.93L51-26.93Q51-26.54 51.05-26.34L51.05-26.34 51-26.27Q49.73-26.64 47.39-26.64L47.39-26.64 39.69-26.64 39.69-20.41 45.48-20.41Q48.17-20.41 48.7-20.56L48.7-20.56 48.78-14.53Q47.6-14.65 45.75-14.65L45.75-14.65 39.69-14.65 39.69-5.86ZM64.74-5.86L74.7-5.86Q76.22-5.86 76.8-6.15L76.8-6.15 76.9-6.13 76.66 0 58.37 0 58.37-32.64Q59.03-32.59 59.83-32.57L59.83-32.57 61.54-32.52Q63.25-32.47 65.25-32.47L65.25-32.47Q70.84-32.47 76.31-32.67L76.31-32.67Q76.04-30.52 76.04-26.93L76.04-26.93Q76.04-26.54 76.09-26.34L76.09-26.34 76.04-26.27Q74.78-26.64 72.43-26.64L72.43-26.64 64.74-26.64 64.74-20.41 70.53-20.41Q73.21-20.41 73.75-20.56L73.75-20.56 73.82-14.53Q72.65-14.65 70.8-14.65L70.8-14.65 64.74-14.65 64.74-5.86ZM90.01-20.58L90.01 0.15Q88.84 0 85.49 0L85.49 0 83.54 0 83.54-32.57Q85.1-32.47 86.98-32.47 88.86-32.47 89.64-32.67L89.64-32.67 97.84-18.73 105.73-32.67Q106.51-32.47 108.71-32.47 110.91-32.47 112.47-32.57L112.47-32.57 112.47 0 110.51 0Q107.17 0 106 0.15L106 0.15 106-21.73 98.01-7.45 90.01-20.58ZM127.58-20.58L127.58 0.15Q126.41 0 123.06 0L123.06 0 121.11 0 121.11-32.57Q122.67-32.47 124.55-32.47 126.43-32.47 127.21-32.67L127.21-32.67 135.41-18.73 143.3-32.67Q144.08-32.47 146.28-32.47 148.48-32.47 150.04-32.57L150.04-32.57 150.04 0 148.09 0Q144.74 0 143.57 0.15L143.57 0.15 143.57-21.73 135.59-7.45 127.58-20.58ZM163.22-7.03L160.93 0.2Q158.83 0 156.02 0L156.02 0 154.09 0 164.71-29.76Q165.42-31.76 165.42-32.09 165.42-32.42 165.39-32.5L165.39-32.5 165.42-32.54Q167-32.47 168.79-32.47L168.79-32.47Q170.25-32.47 172.3-32.52L172.3-32.52 172.33-32.47Q172.28-32.37 172.28-32.2L172.28-32.2Q172.28-31.74 173.01-29.74L173.01-29.74 183.85 0.07Q183.36 0.05 182.7 0.05L182.7 0.05Q182.7 0.05 181.43 0L181.43 0Q180.82 0 180.33 0L180.33 0 176.55 0 174.26-7.03 163.22-7.03ZM165.08-12.89L172.35-12.89 168.66-24.24 165.08-12.89ZM203.94 0.2L198.28-12.62Q197.54-12.57 196.71-12.57 195.88-12.57 194.25-12.7L194.25-12.7 194.25 0 187.78 0 187.78-32.64Q191.2-33.08 196.18-33.08L196.18-33.08Q202.96-33.08 206.3-30.58 209.63-28.08 209.63-22.85L209.63-22.85Q209.63-18.8 206.58-15.92L206.58-15.92Q205.58-14.99 204.28-14.31L204.28-14.31 209.26-3.81Q210.73-0.56 211.51 0.05L211.51 0.05 211.39 0.17Q209.02-0.22 203.94 0.2L203.94 0.2ZM196.64-27.32L196.64-27.32Q195.4-27.32 194.25-27.2L194.25-27.2 194.25-17.87Q195.44-17.7 197.06-17.7 198.67-17.7 199.77-17.98 200.86-18.26 201.67-18.85L201.67-18.85Q203.4-20.14 203.4-22.73 203.4-25.32 201.6-26.37L201.6-26.37Q199.91-27.32 196.64-27.32ZM223.13-9.89L223.13 0.15Q221.44 0 218.83 0L218.83 0 216.9 0 216.9-32.57 217.88-32.52Q218.9-32.47 219.42-32.47L219.42-32.47 220.12-32.47Q222.27-32.47 223.13-32.67L223.13-32.67 223.13-18.87 233.01-32.57Q234.58-32.47 235.65-32.47L235.65-32.47 236.99-32.47Q239.51-32.47 240.58-32.67L240.58-32.67 231.16-20.36 240.44-1.95Q241.02-0.61 241.54 0L241.54 0 240.05 0Q234.89 0 233.63 0.2L233.63 0.2Q233.36-1.44 232.89-2.66L232.89-2.66 226.67-14.53 223.13-9.89ZM252.4-5.86L262.36-5.86Q263.87-5.86 264.46-6.15L264.46-6.15 264.56-6.13 264.31 0 246.02 0 246.02-32.64Q246.68-32.59 247.49-32.57L247.49-32.57 249.2-32.52Q250.91-32.47 252.91-32.47L252.91-32.47Q258.5-32.47 263.97-32.67L263.97-32.67Q263.7-30.52 263.7-26.93L263.7-26.93Q263.7-26.54 263.75-26.34L263.75-26.34 263.7-26.27Q262.43-26.64 260.09-26.64L260.09-26.64 252.4-26.64 252.4-20.41 258.18-20.41Q260.87-20.41 261.41-20.56L261.41-20.56 261.48-14.53Q260.31-14.65 258.45-14.65L258.45-14.65 252.4-14.65 252.4-5.86ZM282.79-27L282.79 0.15Q281.62 0 276.76 0L276.76 0 275.98 0 275.98-27 271.14-27Q269-27 268.61-26.78 268.21-26.56 268-26.39L268-26.39 267.92-26.42 267.92-32.67 268-32.74Q268.8-32.47 272.34-32.47L272.34-32.47 287.65-32.47Q289.8-32.47 290.19-32.69 290.58-32.91 290.8-33.08L290.8-33.08 290.87-33.06 290.87-26.81 290.8-26.73Q289.99-27 286.45-27L286.45-27 282.79-27ZM296.87 0L296.87-32.57Q299.32-32.47 299.83-32.47L299.83-32.47 301.59-32.47Q302.88-32.47 303.66-32.67L303.66-32.67 303.64 0 296.87 0ZM319.41 0L313.03 0Q313.18-0.83 313.18-1.81L313.18-1.81 313.18-32.47 318.06-32.47 331-12.11 331-30.81Q331-32.15 330.76-32.47L330.76-32.47 337.35-32.47Q337.23-31.49 337.23-30.32L337.23-30.32 337.23 0 332.15 0 319.41-19.56 319.41 0ZM372.68-19.63L372.75-19.58Q372.28-18.75 372.28-15.6L372.28-15.6 372.28-8.03Q372.28-4.59 368.72-2.05L368.72-2.05Q365.03 0.61 359.69 0.61L359.69 0.61Q352.26 0.61 347.85-4.05L347.85-4.05Q343.57-8.5 343.57-15.38L343.57-15.38Q343.57-22.71 347.92-27.59L347.92-27.59Q352.78-33.08 361.3-33.08L361.3-33.08Q366.99-33.08 370.31-30.88L370.31-30.88 369.92-23.68 369.72-23.63Q368.87-25.12 366.35-26.07L366.35-26.07Q363.96-26.98 361.33-26.98 358.71-26.98 356.74-26.15 354.78-25.32 353.41-23.78L353.41-23.78Q350.53-20.63 350.53-15.45L350.53-15.45Q350.53-10.94 353.07-8.2L353.07-8.2Q355.61-5.49 359.61-5.49L359.61-5.49Q364.03-5.49 365.57-7.79L365.57-7.79Q366.06-8.52 366.06-9.45L366.06-9.45 366.06-13.5 362.91-13.5Q360.37-13.5 360.15-13.06L360.15-13.06 360.08-13.09 359.86-19.46Q360.54-19.26 365.4-19.26L365.4-19.26 368.28-19.26Q370.97-19.26 372.68-19.63L372.68-19.63Z" opacity="1" transform="matrix(1,0,0,1,0,0)" fill="#000000" class="undefined-text-0" data-fill-palette-color="primary" id="text-0"></path></svg></g></svg></g><g transform="matrix(1,0,0,1,0,44.68914590565013)"><svg viewBox="0 0 232.20979199999994 15.292759211720767" height="15.292759211720767" width="232.20979199999994"><g transform="matrix(1,0,0,1,0,0)"><svg width="232.20979199999994" viewBox="5.199999809265137 -37.099998474121094 696.1300048828125 45.849998474121094" height="15.292759211720767" data-palette-color="#000000"><path d="M5.2-36.5L5.2-36.5Q5.2-37.1 5.75-37.1L5.75-37.1 27.5-37.1Q27.95-37.1 27.95-36.65L27.95-36.65 27.9-34.6Q27.9-34.1 27.4-34.1L27.4-34.1 9.55-34.1Q8.95-34.1 8.95-33.55L8.95-33.55 8.95-20.7Q8.95-20.2 9.5-20.2L9.5-20.2 23.05-20.2Q23.5-20.2 23.5-19.75L23.5-19.75 23.5-17.65Q23.5-17.45 23.43-17.35 23.35-17.25 23.05-17.25L23.05-17.25 9.45-17.25Q8.95-17.25 8.95-16.75L8.95-16.75 8.95-3.5Q8.95-3 9.45-3L9.45-3 28.1-3Q28.65-3 28.65-2.55L28.65-2.55 28.65-0.45Q28.65-0.25 28.53-0.13 28.4 0 28.15 0L28.15 0 5.8 0Q5.2 0 5.2-0.6L5.2-0.6 5.2-36.5ZM38.55-36.5L38.55-0.75Q38.55-0.3 38.4-0.15 38.25 0 37.8 0L37.8 0 35.9 0Q35.25 0 35.25-0.6L35.25-0.6 35.3-36.5Q35.3-37.1 35.8-37.1L35.8-37.1 38.05-37.1Q38.55-37.1 38.55-36.5L38.55-36.5ZM48.65-11.75L48.65-11.75Q48.65-9.2 49.9-7 51.15-4.8 53.22-3.48 55.3-2.15 57.9-2.15L57.9-2.15Q60.65-2.15 62.67-3.25 64.7-4.35 66.1-6.5L66.1-6.5Q66.25-6.75 66.4-6.78 66.55-6.8 66.75-6.7L66.75-6.7 68.45-5.75Q68.85-5.55 68.5-5.15L68.5-5.15Q67.25-3.25 65.67-2 64.1-0.75 62.1-0.13 60.1 0.5 57.7 0.5L57.7 0.5Q54 0.5 51.2-1.2 48.4-2.9 46.8-5.98 45.2-9.05 45.2-13L45.2-13Q45.2-17.4 46.85-20.5 48.5-23.6 51.3-25.3 54.1-27 57.65-27L57.65-27Q61.25-27 63.9-25.4 66.55-23.8 68-20.8 69.45-17.8 69.45-13.55L69.45-13.55Q69.45-13.2 69.37-12.85 69.3-12.5 68.75-12.5L68.75-12.5 49-12.5Q48.85-12.5 48.75-12.28 48.65-12.05 48.65-11.75L48.65-11.75ZM48.7-14.85L65.25-14.85Q65.8-14.85 65.95-15 66.1-15.15 66.1-15.55L66.1-15.55Q66.1-17.95 65.07-19.98 64.05-22 62.17-23.23 60.3-24.45 57.7-24.45L57.7-24.45Q54.75-24.45 52.75-23.03 50.75-21.6 49.72-19.4 48.7-17.2 48.7-14.85L48.7-14.85ZM96.04-26.5L96.04-26.5Q96.34-26.5 96.47-26.33 96.59-26.15 96.49-25.9L96.49-25.9 86.24-0.65Q85.99 0 85.19 0L85.19 0 83.84 0Q82.94 0 82.69-0.6L82.69-0.6 72.49-25.85Q72.44-26.15 72.57-26.33 72.69-26.5 72.99-26.5L72.99-26.5 75.29-26.5Q75.59-26.5 75.77-26.4 75.94-26.3 75.99-26L75.99-26 84.39-5.1Q84.74-4.15 85.19-5.15L85.19-5.15 93.54-26.05Q93.64-26.3 93.79-26.4 93.94-26.5 94.19-26.5L94.19-26.5 96.04-26.5ZM117.04-3.35L117.04-3.35Q115.09-1.45 112.84-0.48 110.59 0.5 107.89 0.5L107.89 0.5Q103.99 0.5 101.74-1.48 99.49-3.45 99.49-6.75L99.49-6.75Q99.49-9.35 100.94-11.23 102.39-13.1 105.24-14.2 108.09-15.3 112.29-15.6L112.29-15.6 116.74-15.95Q117.14-16 117.37-16.18 117.59-16.35 117.59-16.7L117.59-16.7 117.59-18.15Q117.59-21.05 115.77-22.75 113.94-24.45 110.89-24.45L110.89-24.45Q108.54-24.45 106.64-23.38 104.74-22.3 103.19-20.2L103.19-20.2Q103.04-20 102.92-19.93 102.79-19.85 102.54-19.95L102.54-19.95 100.49-20.8Q100.34-20.9 100.29-21.03 100.24-21.15 100.44-21.45L100.44-21.45Q101.99-23.95 104.62-25.48 107.24-27 111.04-27L111.04-27Q114.19-27 116.37-25.98 118.54-24.95 119.67-23 120.79-21.05 120.79-18.4L120.79-18.4 120.79-0.65Q120.79-0.25 120.67-0.13 120.54 0 120.19 0L120.19 0 118.34 0Q118.04 0 117.89-0.18 117.74-0.35 117.74-0.65L117.74-0.65 117.64-3.25Q117.54-3.95 117.04-3.35L117.04-3.35ZM117.59-12.95L117.59-12.95Q117.59-13.8 116.89-13.7L116.89-13.7 113.14-13.4Q110.54-13.25 108.62-12.75 106.69-12.25 105.39-11.45 104.09-10.65 103.44-9.58 102.79-8.5 102.79-7.1L102.79-7.1Q102.79-4.75 104.44-3.43 106.09-2.1 108.89-2.1L108.89-2.1Q110.59-2.1 112.19-2.73 113.79-3.35 115.04-4.3L115.04-4.3Q116.24-5.35 116.92-6.45 117.59-7.55 117.59-8.55L117.59-8.55 117.59-12.95ZM140.64-23.95L134.09-23.95Q133.69-23.95 133.69-23.55L133.69-23.55 133.69-6.75Q133.69-4.2 134.49-3.4 135.29-2.6 136.84-2.6L136.84-2.6 140.49-2.6Q140.74-2.6 140.86-2.48 140.99-2.35 140.99-2.1L140.99-2.1 140.99-0.75Q140.99-0.35 140.49-0.2L140.49-0.2Q140.04-0.15 139.16-0.1 138.29-0.05 137.44-0.03 136.59 0 136.14 0L136.14 0Q133.04 0 131.71-1.43 130.39-2.85 130.39-6.05L130.39-6.05 130.39-23.5Q130.39-23.95 129.94-23.95L129.94-23.95 125.69-23.95Q125.24-23.95 125.24-24.35L125.24-24.35 125.24-26.1Q125.24-26.5 125.64-26.5L125.64-26.5 130.09-26.5Q130.39-26.5 130.44-26.9L130.44-26.9 130.94-34.9Q130.94-35.5 131.39-35.5L131.39-35.5 133.19-35.5Q133.74-35.5 133.74-34.85L133.74-34.85 133.74-26.9Q133.74-26.5 134.09-26.5L134.09-26.5 140.69-26.5Q141.09-26.5 141.09-26.1L141.09-26.1 141.09-24.35Q141.09-23.95 140.64-23.95L140.64-23.95ZM150.19-25.9L150.19-0.75Q150.19-0.3 150.04-0.15 149.89 0 149.39 0L149.39 0 147.54 0Q147.14 0 147.01-0.13 146.89-0.25 146.89-0.6L146.89-0.6 146.89-25.9Q146.89-26.5 147.44-26.5L147.44-26.5 149.64-26.5Q150.19-26.5 150.19-25.9L150.19-25.9ZM150.39-36.4L150.39-32.55Q150.39-31.65 149.64-31.65L149.64-31.65 147.34-31.65Q146.94-31.65 146.81-31.85 146.69-32.05 146.69-32.45L146.69-32.45 146.69-36.35Q146.69-37.1 147.34-37.1L147.34-37.1 149.74-37.1Q150.39-37.1 150.39-36.4L150.39-36.4ZM159.08 0L159.08 0Q158.48 0 158.48-0.6L158.48-0.6 158.48-25.95Q158.48-26.5 158.98-26.5L158.98-26.5 161.13-26.5Q161.63-26.5 161.63-26L161.63-26 161.63-23.05Q161.63-22.8 161.76-22.73 161.88-22.65 162.08-22.9L162.08-22.9Q163.83-24.2 165.28-25.13 166.73-26.05 168.23-26.53 169.73-27 171.48-27L171.48-27Q175.43-27 177.48-24.93 179.53-22.85 179.53-19.55L179.53-19.55 179.53-0.65Q179.53 0 178.93 0L178.93 0 176.83 0Q176.53 0 176.38-0.15 176.23-0.3 176.23-0.6L176.23-0.6 176.23-18.65Q176.23-21.3 174.91-22.78 173.58-24.25 170.68-24.25L170.68-24.25Q169.08-24.25 167.71-23.78 166.33-23.3 164.93-22.38 163.53-21.45 161.78-20L161.78-20 161.78-0.6Q161.78 0 161.13 0L161.13 0 159.08 0ZM210.68-26.75L210.68-26.75Q211.23-26.75 211.43-26.58 211.63-26.4 211.63-26L211.63-26 211.63-24.75Q211.63-24.3 211.46-24.08 211.28-23.85 210.73-23.85L210.73-23.85Q209.83-23.85 209.23-23.73 208.63-23.6 208.08-23.35L208.08-23.35Q206.83-22.8 207.08-22.2L207.08-22.2Q207.28-21.6 207.63-20.75 207.98-19.9 207.98-18.5L207.98-18.5Q207.98-16.3 206.88-14.45 205.78-12.6 203.43-11.53 201.08-10.45 197.43-10.45L197.43-10.45Q194.78-10.45 193.26-10.13 191.73-9.8 191.11-9.28 190.48-8.75 190.48-8.2L190.48-8.2Q190.48-7.35 191.63-6.98 192.78-6.6 195.43-6.45L195.43-6.45 201.68-6.1Q205.93-5.85 207.91-4.03 209.88-2.2 209.88 0.75L209.88 0.75Q209.88 4.55 206.61 6.65 203.33 8.75 197.38 8.75L197.38 8.75Q191.28 8.75 188.06 6.88 184.83 5 184.83 1.55L184.83 1.55Q184.83-0.2 186.01-1.68 187.18-3.15 189.43-4.35L189.43-4.35Q190.03-4.6 189.43-4.9L189.43-4.9Q188.43-5.35 187.88-6.05 187.33-6.75 187.33-7.65L187.33-7.65Q187.33-8.3 187.73-8.95 188.13-9.6 188.93-10.18 189.73-10.75 191.03-11.15L191.03-11.15Q191.33-11.25 191.31-11.43 191.28-11.6 190.98-11.75L190.98-11.75Q188.88-12.9 187.86-14.55 186.83-16.2 186.83-18.5L186.83-18.5Q186.83-22.4 189.71-24.65 192.58-26.9 197.83-26.9L197.83-26.9Q200.38-26.9 202.16-26.33 203.93-25.75 205.18-24.65L205.18-24.65Q205.43-24.45 205.68-24.43 205.93-24.4 206.18-24.65L206.18-24.65Q206.73-25.1 207.43-25.6 208.13-26.1 208.98-26.43 209.83-26.75 210.68-26.75L210.68-26.75ZM197.48-12.8L197.48-12.8Q201.18-12.8 203.01-14.3 204.83-15.8 204.83-18.55L204.83-18.55Q204.83-21.4 203.01-22.98 201.18-24.55 197.48-24.55L197.48-24.55Q193.88-24.55 191.93-22.98 189.98-21.4 189.98-18.55L189.98-18.55Q189.98-15.75 191.93-14.28 193.88-12.8 197.48-12.8L197.48-12.8ZM201.43-3.15L192.88-3.65Q192.03-3.7 190.86-3.1 189.68-2.5 188.78-1.4 187.88-0.3 187.88 1.2L187.88 1.2Q187.88 2.85 189.03 4.03 190.18 5.2 192.41 5.83 194.63 6.45 197.83 6.45L197.83 6.45Q202.18 6.45 204.43 5.13 206.68 3.8 206.68 1.1L206.68 1.1Q206.68-0.75 205.51-1.88 204.33-3 201.43-3.15L201.43-3.15ZM229.28 8.25L229.28 8.25Q227.83 8.25 226.98 8.18 226.13 8.1 226.13 7.65L226.13 7.65 226.13 6.2Q226.13 5.85 226.4 5.73 226.68 5.6 227.58 5.6L227.58 5.6 230.68 5.6Q231.83 5.6 232.75 4.8 233.68 4 234.3 2.8 234.93 1.6 235.1 0.35 235.28-0.9 234.93-1.8L234.93-1.8 225.43-25.75Q225.33-26.05 225.43-26.28 225.53-26.5 225.93-26.5L225.93-26.5 228.18-26.5Q228.48-26.5 228.65-26.4 228.83-26.3 228.88-26L228.88-26 236.88-5.45Q237.08-5 237.33-5.03 237.58-5.05 237.78-5.65L237.78-5.65 245.58-26.05Q245.68-26.3 245.83-26.4 245.98-26.5 246.23-26.5L246.23-26.5 248.03-26.5Q248.33-26.5 248.45-26.3 248.58-26.1 248.48-25.9L248.48-25.9 237.28 2.95Q236.68 4.55 235.88 5.58 235.08 6.6 234.1 7.18 233.13 7.75 231.93 8 230.73 8.25 229.28 8.25L229.28 8.25ZM263.82 0.5L263.82 0.5Q260.12 0.5 257.3-1.23 254.47-2.95 252.92-6.03 251.37-9.1 251.37-13.1L251.37-13.1Q251.37-17.2 252.95-20.33 254.52-23.45 257.35-25.23 260.17-27 263.87-27L263.87-27Q267.62-27 270.4-25.25 273.17-23.5 274.72-20.38 276.27-17.25 276.27-13.2L276.27-13.2Q276.27-9.15 274.7-6.08 273.12-3 270.35-1.25 267.57 0.5 263.82 0.5L263.82 0.5ZM263.92-2.15L263.92-2.15Q266.72-2.15 268.72-3.5 270.72-4.85 271.8-7.35 272.87-9.85 272.87-13.2L272.87-13.2Q272.87-16.6 271.77-19.13 270.67-21.65 268.65-23.03 266.62-24.4 263.87-24.4L263.87-24.4Q261.12-24.4 259.07-23.03 257.02-21.65 255.9-19.13 254.77-16.6 254.77-13.2L254.77-13.2Q254.77-9.85 255.9-7.35 257.02-4.85 259.07-3.5 261.12-2.15 263.92-2.15L263.92-2.15ZM291.37-2.25L291.37-2.25Q293.72-2.25 295.85-3.5 297.97-4.75 300.12-6.95L300.12-6.95 300.12-25.9Q300.12-26.5 300.77-26.5L300.77-26.5 302.87-26.5Q303.42-26.5 303.42-25.9L303.42-25.9 303.42-0.55Q303.42 0 302.92 0L302.92 0 300.77 0Q300.27 0 300.27-0.5L300.27-0.5 300.27-3.55Q300.27-3.8 300.17-3.85 300.07-3.9 299.82-3.7L299.82-3.7Q296.92-1.25 294.8-0.38 292.67 0.5 290.62 0.5L290.62 0.5Q288.32 0.5 286.5-0.43 284.67-1.35 283.6-3.08 282.52-4.8 282.52-7L282.52-7 282.52-25.85Q282.52-26.5 283.17-26.5L283.17-26.5 285.27-26.5Q285.82-26.5 285.82-25.9L285.82-25.9 285.82-8.1Q285.82-5.5 287.3-3.88 288.77-2.25 291.37-2.25L291.37-2.25ZM312.32 0L312.32 0Q312.02 0 311.87-0.15 311.72-0.3 311.72-0.6L311.72-0.6 311.72-25.95Q311.72-26.5 312.22-26.5L312.22-26.5 314.37-26.5Q314.82-26.5 314.82-26L314.82-26 314.82-22.7Q314.82-22.45 314.97-22.4 315.12-22.35 315.32-22.55L315.32-22.55Q316.67-24.15 317.97-25.13 319.27-26.1 320.54-26.55 321.82-27 323.12-27L323.12-27Q324.92-27 324.92-26.4L324.92-26.4 324.92-24.1Q324.92-23.7 324.52-23.75L324.52-23.75Q324.17-23.8 323.69-23.85 323.22-23.9 322.57-23.9L322.57-23.9Q321.42-23.9 320.12-23.38 318.82-22.85 317.67-21.95 316.52-21.05 315.77-19.95 315.02-18.85 315.02-17.7L315.02-17.7 315.02-0.6Q315.02 0 314.37 0L314.37 0 312.32 0ZM351.96 0.5L351.96 0.5Q348.26 0.5 345.44-1.23 342.61-2.95 341.06-6.03 339.51-9.1 339.51-13.1L339.51-13.1Q339.51-17.2 341.09-20.33 342.66-23.45 345.49-25.23 348.31-27 352.01-27L352.01-27Q355.76-27 358.54-25.25 361.31-23.5 362.86-20.38 364.41-17.25 364.41-13.2L364.41-13.2Q364.41-9.15 362.84-6.08 361.26-3 358.49-1.25 355.71 0.5 351.96 0.5L351.96 0.5ZM352.06-2.15L352.06-2.15Q354.86-2.15 356.86-3.5 358.86-4.85 359.94-7.35 361.01-9.85 361.01-13.2L361.01-13.2Q361.01-16.6 359.91-19.13 358.81-21.65 356.79-23.03 354.76-24.4 352.01-24.4L352.01-24.4Q349.26-24.4 347.21-23.03 345.16-21.65 344.04-19.13 342.91-16.6 342.91-13.2L342.91-13.2Q342.91-9.85 344.04-7.35 345.16-4.85 347.21-3.5 349.26-2.15 352.06-2.15L352.06-2.15ZM371.66 0L371.66 0Q371.06 0 371.06-0.6L371.06-0.6 371.06-25.95Q371.06-26.5 371.56-26.5L371.56-26.5 373.71-26.5Q374.21-26.5 374.21-26L374.21-26 374.21-23.05Q374.21-22.8 374.34-22.73 374.46-22.65 374.66-22.9L374.66-22.9Q376.41-24.2 377.86-25.13 379.31-26.05 380.81-26.53 382.31-27 384.06-27L384.06-27Q388.01-27 390.06-24.93 392.11-22.85 392.11-19.55L392.11-19.55 392.11-0.65Q392.11 0 391.51 0L391.51 0 389.41 0Q389.11 0 388.96-0.15 388.81-0.3 388.81-0.6L388.81-0.6 388.81-18.65Q388.81-21.3 387.49-22.78 386.16-24.25 383.26-24.25L383.26-24.25Q381.66-24.25 380.29-23.78 378.91-23.3 377.51-22.38 376.11-21.45 374.36-20L374.36-20 374.36-0.6Q374.36 0 373.71 0L373.71 0 371.66 0ZM403.41-36.5L403.41-0.75Q403.41-0.3 403.26-0.15 403.11 0 402.66 0L402.66 0 400.76 0Q400.11 0 400.11-0.6L400.11-0.6 400.16-36.5Q400.16-37.1 400.66-37.1L400.66-37.1 402.91-37.1Q403.41-37.1 403.41-36.5L403.41-36.5ZM415.01-25.9L415.01-0.75Q415.01-0.3 414.86-0.15 414.71 0 414.21 0L414.21 0 412.36 0Q411.96 0 411.83-0.13 411.71-0.25 411.71-0.6L411.71-0.6 411.71-25.9Q411.71-26.5 412.26-26.5L412.26-26.5 414.46-26.5Q415.01-26.5 415.01-25.9L415.01-25.9ZM415.21-36.4L415.21-32.55Q415.21-31.65 414.46-31.65L414.46-31.65 412.16-31.65Q411.76-31.65 411.63-31.85 411.51-32.05 411.51-32.45L411.51-32.45 411.51-36.35Q411.51-37.1 412.16-37.1L412.16-37.1 414.56-37.1Q415.21-37.1 415.21-36.4L415.21-36.4ZM423.9 0L423.9 0Q423.3 0 423.3-0.6L423.3-0.6 423.3-25.95Q423.3-26.5 423.8-26.5L423.8-26.5 425.95-26.5Q426.45-26.5 426.45-26L426.45-26 426.45-23.05Q426.45-22.8 426.58-22.73 426.7-22.65 426.9-22.9L426.9-22.9Q428.65-24.2 430.1-25.13 431.55-26.05 433.05-26.53 434.55-27 436.3-27L436.3-27Q440.25-27 442.3-24.93 444.35-22.85 444.35-19.55L444.35-19.55 444.35-0.65Q444.35 0 443.75 0L443.75 0 441.65 0Q441.35 0 441.2-0.15 441.05-0.3 441.05-0.6L441.05-0.6 441.05-18.65Q441.05-21.3 439.73-22.78 438.4-24.25 435.5-24.25L435.5-24.25Q433.9-24.25 432.53-23.78 431.15-23.3 429.75-22.38 428.35-21.45 426.6-20L426.6-20 426.6-0.6Q426.6 0 425.95 0L425.95 0 423.9 0ZM454.15-11.75L454.15-11.75Q454.15-9.2 455.4-7 456.65-4.8 458.73-3.48 460.8-2.15 463.4-2.15L463.4-2.15Q466.15-2.15 468.18-3.25 470.2-4.35 471.6-6.5L471.6-6.5Q471.75-6.75 471.9-6.78 472.05-6.8 472.25-6.7L472.25-6.7 473.95-5.75Q474.35-5.55 474-5.15L474-5.15Q472.75-3.25 471.18-2 469.6-0.75 467.6-0.13 465.6 0.5 463.2 0.5L463.2 0.5Q459.5 0.5 456.7-1.2 453.9-2.9 452.3-5.98 450.7-9.05 450.7-13L450.7-13Q450.7-17.4 452.35-20.5 454-23.6 456.8-25.3 459.6-27 463.15-27L463.15-27Q466.75-27 469.4-25.4 472.05-23.8 473.5-20.8 474.95-17.8 474.95-13.55L474.95-13.55Q474.95-13.2 474.88-12.85 474.8-12.5 474.25-12.5L474.25-12.5 454.5-12.5Q454.35-12.5 454.25-12.28 454.15-12.05 454.15-11.75L454.15-11.75ZM454.2-14.85L470.75-14.85Q471.3-14.85 471.45-15 471.6-15.15 471.6-15.55L471.6-15.55Q471.6-17.95 470.58-19.98 469.55-22 467.68-23.23 465.8-24.45 463.2-24.45L463.2-24.45Q460.25-24.45 458.25-23.03 456.25-21.6 455.23-19.4 454.2-17.2 454.2-14.85L454.2-14.85ZM494.75-26.5L494.75-26.5Q495.35-26.5 495.35-25.85L495.35-25.85 495.35-23.55Q495.35-23.15 495.52-23.1 495.7-23.05 496-23.35L496-23.35Q496.5-23.9 497.42-24.75 498.35-25.6 499.95-26.3 501.55-27 503.95-27L503.95-27Q507.1-27 509.6-25.53 512.1-24.05 513.6-21.13 515.1-18.2 515.1-13.7L515.1-13.7Q515.1-9.3 513.65-6.13 512.2-2.95 509.57-1.23 506.95 0.5 503.4 0.5L503.4 0.5Q501 0.5 499.2-0.25 497.4-1 496.2-2L496.2-2Q495.75-2.4 495.6-2.3 495.45-2.2 495.45-1.65L495.45-1.65 495.45 7.65Q495.45 8.25 494.9 8.25L494.9 8.25 492.65 8.25Q492.15 8.25 492.15 7.7L492.15 7.7 492.15-25.8Q492.15-26.2 492.3-26.35 492.45-26.5 492.85-26.5L492.85-26.5 494.75-26.5ZM495.45-5.6L495.45-5.6Q497.1-3.95 498.85-3 500.6-2.05 502.7-2.05L502.7-2.05Q505.35-2.05 507.35-3.4 509.35-4.75 510.52-7.3 511.7-9.85 511.7-13.55L511.7-13.55Q511.7-17.4 510.5-19.78 509.3-22.15 507.32-23.3 505.35-24.45 503.05-24.45L503.05-24.45Q500.8-24.45 499.07-23.45 497.35-22.45 496.4-21.03 495.45-19.6 495.45-18.2L495.45-18.2 495.45-5.6ZM522.44 0L522.44 0Q522.14 0 521.99-0.15 521.84-0.3 521.84-0.6L521.84-0.6 521.84-25.95Q521.84-26.5 522.34-26.5L522.34-26.5 524.49-26.5Q524.94-26.5 524.94-26L524.94-26 524.94-22.7Q524.94-22.45 525.09-22.4 525.24-22.35 525.44-22.55L525.44-22.55Q526.79-24.15 528.09-25.13 529.39-26.1 530.67-26.55 531.94-27 533.24-27L533.24-27Q535.04-27 535.04-26.4L535.04-26.4 535.04-24.1Q535.04-23.7 534.64-23.75L534.64-23.75Q534.29-23.8 533.82-23.85 533.34-23.9 532.69-23.9L532.69-23.9Q531.54-23.9 530.24-23.38 528.94-22.85 527.79-21.95 526.64-21.05 525.89-19.95 525.14-18.85 525.14-17.7L525.14-17.7 525.14-0.6Q525.14 0 524.49 0L524.49 0 522.44 0ZM541.64-11.75L541.64-11.75Q541.64-9.2 542.89-7 544.14-4.8 546.22-3.48 548.29-2.15 550.89-2.15L550.89-2.15Q553.64-2.15 555.67-3.25 557.69-4.35 559.09-6.5L559.09-6.5Q559.24-6.75 559.39-6.78 559.54-6.8 559.74-6.7L559.74-6.7 561.44-5.75Q561.84-5.55 561.49-5.15L561.49-5.15Q560.24-3.25 558.67-2 557.09-0.75 555.09-0.13 553.09 0.5 550.69 0.5L550.69 0.5Q546.99 0.5 544.19-1.2 541.39-2.9 539.79-5.98 538.19-9.05 538.19-13L538.19-13Q538.19-17.4 539.84-20.5 541.49-23.6 544.29-25.3 547.09-27 550.64-27L550.64-27Q554.24-27 556.89-25.4 559.54-23.8 560.99-20.8 562.44-17.8 562.44-13.55L562.44-13.55Q562.44-13.2 562.37-12.85 562.29-12.5 561.74-12.5L561.74-12.5 541.99-12.5Q541.84-12.5 541.74-12.28 541.64-12.05 541.64-11.75L541.64-11.75ZM541.69-14.85L558.24-14.85Q558.79-14.85 558.94-15 559.09-15.15 559.09-15.55L559.09-15.55Q559.09-17.95 558.07-19.98 557.04-22 555.17-23.23 553.29-24.45 550.69-24.45L550.69-24.45Q547.74-24.45 545.74-23.03 543.74-21.6 542.72-19.4 541.69-17.2 541.69-14.85L541.69-14.85ZM584.59-20.9L584.59-20.9Q583.49-22.5 581.61-23.48 579.74-24.45 577.14-24.45L577.14-24.45Q574.24-24.45 572.31-23.23 570.39-22 570.39-19.85L570.39-19.85Q570.39-18.7 571.26-17.68 572.14-16.65 574.79-15.8L574.79-15.8 581.29-13.8Q584.54-12.85 586.04-11.13 587.54-9.4 587.54-7.1L587.54-7.1Q587.54-4.85 586.16-3.15 584.79-1.45 582.39-0.48 579.99 0.5 576.99 0.5L576.99 0.5Q573.19 0.5 570.26-1.05 567.34-2.6 566.09-5.05L566.09-5.05Q565.99-5.25 565.99-5.4 565.99-5.55 566.19-5.7L566.19-5.7 567.79-6.65Q567.99-6.75 568.16-6.73 568.34-6.7 568.44-6.55L568.44-6.55Q569.29-5.2 570.49-4.2 571.69-3.2 573.31-2.65 574.94-2.1 577.04-2.1L577.04-2.1Q579.09-2.1 580.74-2.68 582.39-3.25 583.36-4.3 584.34-5.35 584.34-6.75L584.34-6.75Q584.34-8.25 583.11-9.33 581.89-10.4 578.99-11.2L578.99-11.2 573.89-12.7Q570.09-13.8 568.66-15.48 567.24-17.15 567.24-19.25L567.24-19.25Q567.24-21.6 568.51-23.33 569.79-25.05 572.04-26.03 574.29-27 577.19-27L577.19-27Q580.44-27 582.99-25.75 585.54-24.5 586.94-22.35L586.94-22.35Q587.09-22.2 587.09-22.05 587.09-21.9 586.89-21.8L586.89-21.8 585.19-20.8Q585.04-20.75 584.89-20.75 584.74-20.75 584.59-20.9L584.59-20.9ZM595.94-11.75L595.94-11.75Q595.94-9.2 597.19-7 598.44-4.8 600.51-3.48 602.59-2.15 605.19-2.15L605.19-2.15Q607.94-2.15 609.96-3.25 611.99-4.35 613.38-6.5L613.38-6.5Q613.53-6.75 613.69-6.78 613.84-6.8 614.03-6.7L614.03-6.7 615.74-5.75Q616.13-5.55 615.78-5.15L615.78-5.15Q614.53-3.25 612.96-2 611.38-0.75 609.38-0.13 607.38 0.5 604.99 0.5L604.99 0.5Q601.28 0.5 598.49-1.2 595.69-2.9 594.09-5.98 592.49-9.05 592.49-13L592.49-13Q592.49-17.4 594.13-20.5 595.78-23.6 598.59-25.3 601.38-27 604.94-27L604.94-27Q608.53-27 611.19-25.4 613.84-23.8 615.28-20.8 616.74-17.8 616.74-13.55L616.74-13.55Q616.74-13.2 616.66-12.85 616.59-12.5 616.03-12.5L616.03-12.5 596.28-12.5Q596.13-12.5 596.03-12.28 595.94-12.05 595.94-11.75L595.94-11.75ZM595.99-14.85L612.53-14.85Q613.09-14.85 613.24-15 613.38-15.15 613.38-15.55L613.38-15.55Q613.38-17.95 612.36-19.98 611.34-22 609.46-23.23 607.59-24.45 604.99-24.45L604.99-24.45Q602.03-24.45 600.03-23.03 598.03-21.6 597.01-19.4 595.99-17.2 595.99-14.85L595.99-14.85ZM623.68 0L623.68 0Q623.08 0 623.08-0.6L623.08-0.6 623.08-25.95Q623.08-26.5 623.58-26.5L623.58-26.5 625.73-26.5Q626.23-26.5 626.23-26L626.23-26 626.23-23.05Q626.23-22.8 626.36-22.73 626.48-22.65 626.68-22.9L626.68-22.9Q628.43-24.2 629.88-25.13 631.33-26.05 632.83-26.53 634.33-27 636.08-27L636.08-27Q640.03-27 642.08-24.93 644.13-22.85 644.13-19.55L644.13-19.55 644.13-0.65Q644.13 0 643.53 0L643.53 0 641.43 0Q641.13 0 640.98-0.15 640.83-0.3 640.83-0.6L640.83-0.6 640.83-18.65Q640.83-21.3 639.51-22.78 638.18-24.25 635.28-24.25L635.28-24.25Q633.68-24.25 632.31-23.78 630.93-23.3 629.53-22.38 628.13-21.45 626.38-20L626.38-20 626.38-0.6Q626.38 0 625.73 0L625.73 0 623.68 0ZM662.78-27L662.78-27Q665.28-27 667.15-26.25 669.03-25.5 670.48-24.18 671.93-22.85 672.93-21.15L672.93-21.15Q673.18-20.65 672.78-20.5L672.78-20.5 670.68-19.8Q670.33-19.65 670.08-20.05L670.08-20.05Q668.93-21.6 667.83-22.53 666.73-23.45 665.58-23.93 664.43-24.4 663.03-24.4L663.03-24.4Q660.28-24.4 658.2-23.03 656.13-21.65 655-19.15 653.88-16.65 653.88-13.25L653.88-13.25Q653.88-9.85 655.03-7.33 656.18-4.8 658.25-3.45 660.33-2.1 663.08-2.1L663.08-2.1Q665.58-2.1 667.45-3.3 669.33-4.5 670.83-6.95L670.83-6.95Q670.98-7.15 671.1-7.2 671.23-7.25 671.43-7.15L671.43-7.15 673.18-6.35Q673.48-6.2 673.33-5.75L673.33-5.75Q672.53-4.4 671.45-3.25 670.38-2.1 669.08-1.28 667.78-0.45 666.2 0.03 664.63 0.5 662.78 0.5L662.78 0.5Q659.18 0.5 656.38-1.23 653.58-2.95 652.03-6.03 650.48-9.1 650.48-13.15L650.48-13.15Q650.48-17.2 652.05-20.33 653.63-23.45 656.43-25.23 659.23-27 662.78-27L662.78-27ZM680.53-11.75L680.53-11.75Q680.53-9.2 681.78-7 683.03-4.8 685.1-3.48 687.18-2.15 689.78-2.15L689.78-2.15Q692.53-2.15 694.55-3.25 696.58-4.35 697.98-6.5L697.98-6.5Q698.13-6.75 698.28-6.78 698.43-6.8 698.63-6.7L698.63-6.7 700.33-5.75Q700.73-5.55 700.38-5.15L700.38-5.15Q699.13-3.25 697.55-2 695.98-0.75 693.98-0.13 691.98 0.5 689.58 0.5L689.58 0.5Q685.88 0.5 683.08-1.2 680.28-2.9 678.68-5.98 677.08-9.05 677.08-13L677.08-13Q677.08-17.4 678.73-20.5 680.38-23.6 683.18-25.3 685.98-27 689.53-27L689.53-27Q693.13-27 695.78-25.4 698.43-23.8 699.88-20.8 701.33-17.8 701.33-13.55L701.33-13.55Q701.33-13.2 701.25-12.85 701.18-12.5 700.63-12.5L700.63-12.5 680.88-12.5Q680.73-12.5 680.63-12.28 680.53-12.05 680.53-11.75L680.53-11.75ZM680.58-14.85L697.13-14.85Q697.68-14.85 697.83-15 697.98-15.15 697.98-15.55L697.98-15.55Q697.98-17.95 696.95-19.98 695.93-22 694.05-23.23 692.18-24.45 689.58-24.45L689.58-24.45Q686.63-24.45 684.63-23.03 682.63-21.6 681.6-19.4 680.58-17.2 680.58-14.85L680.58-14.85Z" opacity="1" transform="matrix(1,0,0,1,0,0)" fill="#000000" class="undefined-text-1" data-fill-palette-color="secondary" id="text-1"></path></svg></g></svg></g></svg></g></svg></g><g transform="matrix(1,0,0,1,0,4.903520743345066)"><svg viewBox="0 0 62.217753140266204 62.17124465415494" height="62.17124465415494" width="62.217753140266204"><g><svg xmlns="https://www.w3.org/2000/svg" xmlns:xlink="https://www.w3.org/1999/xlink" version="1.1" x="0" y="0" viewBox="5 5.033313751220703 89.99995422363281 89.93267822265625" enable-background="new 0 0 100 100" xml:space="preserve" height="62.17124465415494" width="62.217753140266204" class="icon-icon-0" data-fill-palette-color="accent" id="icon-0"><path d="M37.84 38.334c0.958 0 1.736-0.777 1.736-1.734 0-0.097-0.014-0.188-0.028-0.282l4.622-1.605c0.234 0.681 0.875 1.173 1.633 1.173 0.731 0 1.355-0.455 1.61-1.097l6.346 3.718c-0.057 0.171-0.096 0.353-0.096 0.544 0 0.956 0.779 1.735 1.736 1.735 0.871 0 1.588-0.648 1.711-1.486l7.032-4.088c0.318 0.407 0.808 0.674 1.364 0.674 0.956 0 1.734-0.778 1.734-1.735 0-0.956-0.778-1.735-1.734-1.735-0.958 0-1.736 0.779-1.736 1.735 0 0.107 0.013 0.212 0.032 0.316l-6.792 3.947c-0.256-0.643-0.88-1.1-1.611-1.1-0.472 0-0.898 0.189-1.211 0.497l-6.675-3.91c-0.122-0.838-0.839-1.486-1.711-1.486-0.861 0-1.574 0.634-1.707 1.46l-4.87 1.691c-0.315-0.423-0.816-0.702-1.386-0.702-0.957 0-1.734 0.779-1.734 1.736S36.883 38.334 37.84 38.334zM65.507 33.23c0.505 0 0.917 0.412 0.917 0.919 0 0.506-0.412 0.919-0.917 0.919-0.509 0-0.92-0.413-0.92-0.919C64.587 33.643 64.998 33.23 65.507 33.23zM55.399 38.131c0.506 0 0.919 0.412 0.919 0.919 0 0.506-0.413 0.919-0.919 0.919s-0.919-0.413-0.919-0.919C54.48 38.543 54.894 38.131 55.399 38.131zM45.803 33.23c0.507 0 0.919 0.412 0.919 0.919 0 0.506-0.412 0.919-0.919 0.919-0.506 0-0.918-0.413-0.918-0.919C44.885 33.643 45.297 33.23 45.803 33.23zM37.84 35.681c0.508 0 0.92 0.412 0.92 0.919s-0.412 0.918-0.92 0.918c-0.506 0-0.917-0.411-0.917-0.918S37.334 35.681 37.84 35.681z" fill="#000000" data-fill-palette-color="accent"></path><path d="M38.093 55.246c8.831 6.67 21.441 6.006 29.492-2.045 8.803-8.804 8.803-23.075 0-31.879-8.804-8.804-23.075-8.804-31.878 0-8.051 8.05-8.717 20.658-2.047 29.491l-5.477 5.478-1.877-1.875L5 75.725l8.182 8.182 21.31-21.309-1.877-1.871L38.093 55.246zM39.541 25.157c6.688-6.688 17.523-6.683 24.208 0 6.352 6.352 6.656 16.443 0.94 23.166V37.09c-2.172 0.48-3.989 3.183-7.146 4.921-0.072 0.039-0.135 0.062-0.205 0.099v11.277c-0.837 0.293-1.687 0.535-2.551 0.695V42.606c-1.992-0.433-3.298-3.022-6.84-5.089-0.166-0.097-0.338-0.182-0.511-0.257v16.573c-0.868-0.219-1.721-0.5-2.552-0.857V36.798c-2.605 0.068-5.41 1.475-7.351 2.681v7.454C32.955 40.268 33.616 31.085 39.541 25.157z" fill="#000000" data-fill-palette-color="accent"></path><path d="M94.431 46.87c0 0-7.129-9.424-8.768-11.636-1.639-2.213 0.247-5.49 0.247-5.49 0.974-4.018-3.572-11.07-5.972-14.427-0.829-1.16-5.854-6.503-13.429-8.396-11.855-2.964-29.209-3.793-39.453 7.891-14.988 17.092-9.427 35.108-7.15 40.651l6.4-6.404 1.877 1.876 0.62-0.62c-5.792-10.142-4.208-23.238 4.226-31.67 4.972-4.974 11.584-7.713 18.616-7.713 7.033 0 13.644 2.739 18.617 7.713 4.973 4.973 7.711 11.585 7.711 18.617s-2.738 13.645-7.711 18.617c-4.964 4.965-11.564 7.699-18.585 7.699l0 0c-4.582 0-9.123-1.219-13.083-3.477l-0.619 0.621 1.876 1.871-5.111 5.111c2.927 1.818 3.809 4.322 3.809 4.322l2.296 5.979c1.063 3.443 1.228 8.193 1.228 8.193v8.768h31.302c0-0.818 0.327-8.275 0.327-8.275 1.966-7.047 3.277-4.67 10.323-5.98 7.048-1.312 5.981-5.328 5.734-6.146-0.244-0.818-1.146-3.359-1.146-5.162s0.736-2.949 2.212-4.18c1.477-1.229 0.656-2.539 0.656-2.539s-1.723-1.064-2.294-1.639c-0.574-0.574 1.72-1.393 1.72-1.393 2.213-0.902-0.082-4.016-0.082-5.49s0.247-2.375 2.787-3.852C96.15 48.835 94.431 46.87 94.431 46.87z" fill="#000000" data-fill-palette-color="accent"></path></svg></g></svg></g></svg></g><defs></defs></svg><rect width="395.52" height="59.54975008802772" fill="none" stroke="none" visibility="hidden"></rect></g></svg></g></svg>